CATALOG 0724359339825
PERFORMER "Jethro Tull"
TITLE "Live Bursting Out (2004 Remaster)"
FILE "201 (Introduction by Ian Anderson).wav" WAVE
  TRACK 01 AUDIO
    TITLE "(Introduction by Ian Anderson)"
    PERFORMER "Jethro Tull"
    ISRC GBAYK0400002
    INDEX 01 00:00:00
FILE "202 Hunting Girl.wav" WAVE
  TRACK 02 AUDIO
    TITLE "Hunting Girl"
    PERFORMER "Jethro Tull"
    ISRC GBAYK0300079
    INDEX 01 00:00:00
FILE "203 Too Old To Rock 'N' Roll- Too Young To Die.wav" WAVE
  TRACK 03 AUDIO
    TITLE "Too Old To Rock 'N' Roll: Too Young To Die"
    PERFORMER "Jethro Tull"
    ISRC GBAYK0300080
    INDEX 01 00:00:00
FILE "204 Conundrum.wav" WAVE
  TRACK 04 AUDIO
    TITLE "Conundrum"
    PERFORMER "Jethro Tull"
    ISRC GBAYK0300081
    INDEX 01 00:00:00
FILE "205 Minstrel In The Gallery.wav" WAVE
  TRACK 05 AUDIO
    TITLE "Minstrel In The Gallery"
    PERFORMER "Jethro Tull"
    ISRC GBAYK0300066
    INDEX 01 00:00:00
FILE "206 Cross-Eyed Mary.wav" WAVE
  TRACK 06 AUDIO
    TITLE "Cross-Eyed Mary"
    PERFORMER "Jethro Tull"
    ISRC GBAYK0300065
    INDEX 01 00:00:00
FILE "207 Quatrain.wav" WAVE
  TRACK 07 AUDIO
    TITLE "Quatrain"
    PERFORMER "Jethro Tull"
    ISRC GBAYK0300069
    INDEX 01 00:00:00
FILE "208 Aqualung.wav" WAVE
  TRACK 08 AUDIO
    TITLE "Aqualung"
    PERFORMER "Jethro Tull"
    ISRC GBAYK0300067
    INDEX 01 00:00:00
FILE "209 Locomotive Breath.wav" WAVE
  TRACK 09 AUDIO
    TITLE "Locomotive Breath"
    PERFORMER "Jethro Tull"
    ISRC GBAYK0300068
    INDEX 01 00:00:00
FILE "210 The Dambusters March.wav" WAVE
  TRACK 10 AUDIO
    TITLE "The Dambusters March"
    PERFORMER "Jethro Tull"
    ISRC GBAYK0300070
    INDEX 01 00:00:00
